<svg xmlns="http://www.w3.org/2000/svg" viewBox="0 0 318 98.46"><defs><style>.cls-1{fill:#414042;}</style></defs><title>Asset 2</title><g id="Layer_2" data-name="Layer 2"><g id="Layer_1-2" data-name="Layer 1"><path class="cls-1" d="M317.86,97.76a6.41,6.41,0,0,1-.86-.09c-.57-.08-.69-.52-.74-1.08-.09-.85-.09-2.42-.09-4.33V89.07c0-3.1,0-3.67,0-4.3s.19-1,.7-1.13a1.79,1.79,0,0,1,.47-.06c.07,0,.16-.2.16-.28s-.09-.15-.31-.15c-.57,0-1.76.05-1.87.05s-1.27-.05-1.91-.05c-.2,0-.31,0-.31.15s.08.28.16.28a2.35,2.35,0,0,1,.58.06c.43.11.61.44.65,1.13s0,1.2,0,4.3v3.18c0,1.91,0,3.48-.11,4.33-.07.56-.15,1-.54,1.08a2.31,2.31,0,0,1-.58.09c-.1,0-.15.21-.15.26s.1.17.31.17c.58,0,1.77-.06,1.85-.06s1.29.06,2.34.06c.21,0,.3-.06.3-.17s0-.26-.14-.26"/><path class="cls-1" d="M200.7,83.14c-.56,0-1.45.05-1.58.05s-1.15-.05-2-.05c-.21,0-.31,0-.31.15s.09.28.16.28a2.52,2.52,0,0,1,.64.06c.63.13.77.44.81,1.13s0,1.2,0,4.31V91.4c0,2.05-.23,3.74-1.11,4.87a3.91,3.91,0,0,1-3,1.43,3.62,3.62,0,0,1-2.86-1.08c-.81-.82-1.43-2.05-1.43-4.92V89.07c0-3.1,0-3.67,0-4.31s.18-1.06.7-1.13a1.78,1.78,0,0,1,.47-.06c.09,0,.17-.2.17-.28s-.09-.15-.31-.15c-.56,0-1.7.05-1.88.05s-1.32-.05-2.18-.05c-.2,0-.29,0-.29.15s.07.28.14.28a2.52,2.52,0,0,1,.65.06c.63.13.77.44.82,1.13s0,1.2,0,4.31v2.74c0,2.91.71,4.29,1.64,5.23A5.66,5.66,0,0,0,194,98.46,5.35,5.35,0,0,0,197.89,97c1.54-1.41,1.76-3.8,1.76-6v-2c0-3.1,0-3.67,0-4.31s.19-1,.7-1.13a1.5,1.5,0,0,1,.49-.06c.07,0,.15-.2.15-.28s-.11-.15-.33-.15"/><path class="cls-1" d="M145.38,8.42a.82.82,0,0,0-.62.32.17.17,0,0,0,0,.17.18.18,0,0,0,.16.08c.11,0,.41,0,.67,0h.4a.16.16,0,0,0,.13-.1.18.18,0,0,0,0-.16,1,1,0,0,0-.68-.35"/><path class="cls-1" d="M137.81,52.81a18.58,18.58,0,0,1-.54,1.85l-.55,1.54,1.26-1c.14-.11.29-.26.48-.44a8,8,0,0,1,2.6-1.87c.78-.23,2-1.06,1.9-2.28,0-.11,0-.28,0-.44,0-.91,0-2.41-1-3.13l-.37-.24a13.78,13.78,0,0,1-2.39-1.7,20.86,20.86,0,0,0,5-3.58,63.48,63.48,0,0,1,3.12,11.78c.2,1,.39,2,.59,3l.08.37h17.39l.08-.37c.22-1,.4-2,.59-3a66,66,0,0,1,3.13-11.78,20.85,20.85,0,0,0,5,3.58,13.56,13.56,0,0,1-2.38,1.7,3.61,3.61,0,0,1-.38.24c-1,.72-1,2.23-1,3.13a3.84,3.84,0,0,1,0,.44,2.48,2.48,0,0,0,1.88,2.27,8,8,0,0,1,2.64,1.88l.46.44,1.27,1-.54-1.54a17.38,17.38,0,0,1-.54-1.85,9.84,9.84,0,0,0,1.43.08l.87,0-.53-.7a12.06,12.06,0,0,0-3.81-2.53c3.1-1.42,3.24-2.67,3.2-4.64,0-.39,0-.79,0-1.25,0-1.53-2-2.64-2.58-2.93a7.46,7.46,0,0,1-3.25-3.35A77.65,77.65,0,0,1,177,27l.11-.13,0-.18c-.62-4.83-1-9.25.14-14.59l.06-.31-.26-.18c-1.94-1.26-6-3.93-9.7-11.21L167.11,0l-.57.23c-.89.37-2.24.95-9.88.95s-9-.58-9.89-.95L146.21,0,146,.37c-3.71,7.28-7.76,9.94-9.7,11.21l-.27.18.06.31c1.19,5.34.79,9.58.15,14.59l0,.18.09.13a78.75,78.75,0,0,1,6.13,10.5,7.56,7.56,0,0,1-3.25,3.35c-.61.29-2.59,1.4-2.58,3,0,.43,0,.82,0,1.2,0,2,.09,3.23,3.2,4.65A11.3,11.3,0,0,0,136,52.17l-.52.7.87,0a9.93,9.93,0,0,0,1.43-.08m18-22.77V27.73h1.76V30h2.29V27.73h.94v3.75h-8.23V27.73h1.32V30Zm1,8.77h2.49V40h-2.49Zm2.49,2.6h-.64v-1h.64ZM154,38.81h2.49V40H154Zm.65,2.6H154v-1h.65Zm.29-1h3.39v1H155Zm-.95-3.1h5.29v1.16H154Zm2.49-.38H154V35.33h2.49ZM155,33.79h3.39V35H155Zm1.85,1.55h2.49v1.56h-2.49Zm1.85-.38V33.79h1.82L159.38,35Zm-1.85-3.1h4V33.4h-4Zm-.31,1.55h-4V31.85h4Zm-1.84.38V35H154l-1.12-1.17ZM161.52,43h-9.71V42h9.71Zm-2.06,4.37h-5.59V45.76h5.59ZM155,43.56h3.39v1.84H155Zm3.7,1.84V43.56h2.18l.52,1.84ZM155,47.7h3.39v1.56H155Zm4.49,1.93v2h-.8a2,2,0,0,0-4,0h-.82v-2Zm-.71,2.32h2.55v1.57h-2.5v-.89a6.58,6.58,0,0,0-.05-.67m-4.13,0a3.61,3.61,0,0,0-.1.65v.91H152V51.94Zm.5.65c0-1.41.79-2.05,1.54-2.05s1.55.65,1.55,2.08v3.07h-3.09Zm3.69,1.28h5l.51,1.81h-5.46Zm2.8-.37V51.94h1.61l.43,1.57Zm-1.84-1.93v-2h2.8l.55,2Zm-1.09-2.32V47.7H162l.45,1.56Zm1.09-1.93V45.76h1.71l.44,1.56Zm-7.29-3.77h2.2v1.84h-2.74Zm1.09,2.2v1.56h-2.18l.45-1.56Zm1.11,1.94v1.56h-3.86l.45-1.56Zm-1.11,1.93v2h-3.42l.57-2Zm-1.83,2.32v1.57h-2.15l.46-1.57Zm2.79,1.93v1.81h-5.58l.53-1.81Zm21.17-2h-.13a5.24,5.24,0,0,0-.62,0h-.56l.11.54c.08.33.14.64.22.94A7.3,7.3,0,0,0,172.54,52c-.42-.12-1.32-.64-1.26-1.36V49.59l.93.44a1.89,1.89,0,0,1,.32.15l.1,0a23,23,0,0,1,3.06,1.7m-3.27-2.81-.92-.43-.11,0a1.5,1.5,0,0,1,.49-.88,3.41,3.41,0,0,1,.33-.2,12.13,12.13,0,0,0,2.69-2l.87.49c-.1,1.19-.64,2-3.36,3.1m1.28-7.49c1,.51,2.1,1.37,2.1,2.09,0,.46,0,.87,0,1.27l-.41-.24v0l-.4-.2c-1.49-.72-5.18-3-5.43-4,.25-.63.54-1.3.83-2a8.32,8.32,0,0,0,3.3,3.14M145,4a3,3,0,0,1,.73,2h3.43a3,3,0,0,1,1.07-2.34L148.93,4a6.19,6.19,0,0,1-.81-.78l.09.5c.14.71-.25,1-.31.47a2,2,0,0,0-.49-1.31,2.07,2.07,0,0,0-.49,1.31c-.06.52-.47.24-.32-.47l.1-.5a7.28,7.28,0,0,1-.8.78l-.78-.22c.52-.8,1-1.65,1.53-2.62,1,.42,2.72.92,10,.92s9-.5,10-.92c3.6,6.92,7.51,9.66,9.57,11a36.71,36.71,0,0,0-.37,12.17H174a.64.64,0,0,0,0-.3c-.09-.29-.35-1-.79-1.09a4.17,4.17,0,0,1-3.27-2.56l-.44-.93a17.87,17.87,0,0,0-2.19-4c-.3-.34-.56-.6-.75-.81a6.09,6.09,0,0,1-.71-.83c-.67-1.35-2.88-1.83-6.58-1.45l-.18,0c-.18,0-.39,0-.44-.2a.43.43,0,0,1,.18-.47c3.39-1.41,4-2.15,4.23-2.63a.84.84,0,0,0,0-.72c1-.36,1.07-.85,1-1.47a1.43,1.43,0,0,0,.9-.53,1.35,1.35,0,0,0,0-1.07,1,1,0,0,0,.6-1.2c.44-.32.86-.71.68-1.09a.68.68,0,0,0-.81-.25s0,0-.05,0A14.67,14.67,0,0,1,161.65,4a39.72,39.72,0,0,0-7.52,2.48c-.11.05-.23.08-.36.14a3.17,3.17,0,0,0-.88.38,28.31,28.31,0,0,1-4.74-.45,6.15,6.15,0,0,0-2.92,0,4.2,4.2,0,0,0-2.78,1.75,3.1,3.1,0,0,0-.14,2.48l0,.12a1.75,1.75,0,0,0,.78,1.17,2.21,2.21,0,0,0,1.51.29,1.35,1.35,0,0,1,.94.09c-.15.09-.38.25-.48.3s.06.19.76.19l.21,0a2.8,2.8,0,0,1,.35,2.51,4.19,4.19,0,0,0,.08,2.58,15.29,15.29,0,0,1,.11,4.37c-.08.61-.44.83-.9,1.12-.12.08-.25.14-.36.23-.34.24-.55.43-.61.62h-7.26a36.91,36.91,0,0,0-.39-12.17A25.71,25.71,0,0,0,145,4m.92,1.21a1.53,1.53,0,0,1,.05.27,2.77,2.77,0,0,0-.47-1.31c.21.07.44.17.44.17a1.63,1.63,0,0,0,.35-.25c0,1,.95.77.95.07a1.43,1.43,0,0,1,.19-.78,1.48,1.48,0,0,1,.19.78c0,.71.94.95,1-.07a1.57,1.57,0,0,0,.36.25s.24-.1.45-.17a2.7,2.7,0,0,0-.52,1.51H146a.87.87,0,0,0,0-.17h2.91c0-.1,0-.2.05-.3Zm21.56,15.68a.4.4,0,0,0-.27-.2c-.84-.19-1-1-1.09-1.59V19c0-.27-.09-1.71-.08-1.94a3.66,3.66,0,0,0-.08-.95,27.44,27.44,0,0,1,3,5.18,4.89,4.89,0,0,0,3.25,2.85.51.51,0,0,1,.26.18h-5.25c.13-.54.6-2.87.27-3.46m4.87,2.78a4.38,4.38,0,0,1-2.88-2.55c-.29-.73-2.43-5.06-4.53-6.88a.28.28,0,0,0-.35,0,.27.27,0,0,0,0,.36,3.51,3.51,0,0,1,.95,2.45c0,.27,0,1.75.08,2.11.13,1.13.61,1.82,1.45,2a10.46,10.46,0,0,1-.34,3.05,4.45,4.45,0,0,1-.67.12h-1.49a.49.49,0,0,0,0-.06.12.12,0,0,1,.08-.13.48.48,0,0,0,.26-.57.34.34,0,0,0,0,0,.88.88,0,0,1,.26,0,.85.85,0,0,0,.37,0c.27-.06.42-.49.5-.75s.17-.85-.14-1.13a2.12,2.12,0,0,0-.37-.32A6.75,6.75,0,0,1,163.26,19a.23.23,0,0,0-.11-.15l-.1-.06c-.33-.18-1.1-.6-1.38-2.42a.34.34,0,0,0-.12-.19.29.29,0,0,0-.24,0c-1.12.51-2,1-2.76,1.39-2.39,1.3-3.59,1.94-7.93.87a.3.3,0,0,0-.3.14,9.13,9.13,0,0,1-1.43,1.88c-.39.44-.46,2.06-.45,3,0,0-.14.15-.22.2a1.68,1.68,0,0,0-.26.23,1,1,0,0,0-.51,0,1.08,1.08,0,0,0-.54.37l-.07.06h-1.46a2.55,2.55,0,0,1,.25-.19A1.79,1.79,0,0,1,146,24a2,2,0,0,0,1.15-1.5,16.44,16.44,0,0,0-.13-4.59,3.77,3.77,0,0,1-.06-2.3,3.32,3.32,0,0,0-.33-2.74,2.19,2.19,0,0,0,1.6-1,2.49,2.49,0,0,0-.08-2.21.26.26,0,0,0-.37-.08.25.25,0,0,0-.08.36,2.06,2.06,0,0,1,0,1.7,1.67,1.67,0,0,1-1.24.78,1.22,1.22,0,0,0,.22-.76c0-.28-.18-.78-1.11-1a6.59,6.59,0,0,1-.8-.12c.27-.08.49-.18.53-.34a.29.29,0,0,0-.17-.3h0l0,0a3,3,0,0,0-.8-.19l-.2,0a.83.83,0,0,1-.49-.07.59.59,0,0,0-.22,0h0a.32.32,0,0,0-.28.18.38.38,0,0,1-.12-.29.52.52,0,0,1,.23-.37,2.65,2.65,0,0,1,1.23-.47.27.27,0,0,0,.24-.07l.13-.12c.27-.26.3-.24.4-.18a.24.24,0,0,0,.27,0l.17-.09c.31-.19.5-.27.82,0a.28.28,0,0,0,.34,0,.27.27,0,0,0,0-.34,2.24,2.24,0,0,1-.18-.35,3.14,3.14,0,0,1,.62.48,2.4,2.4,0,0,0,.85.41c.46.16,1,.32,1.16.82a15.57,15.57,0,0,1,.81,3.34l.41-.75a15.08,15.08,0,0,0-.73-2.8,2.13,2.13,0,0,0-1.49-1.11,2.12,2.12,0,0,1-.66-.29,3.75,3.75,0,0,0-.81-.61,10.44,10.44,0,0,1,1.25.17,29.35,29.35,0,0,0,4.26.45A3.7,3.7,0,0,0,151.68,9c0,.07,0,.19-.05.35-.08.73-.27,2.48-1.44,3.24a1.71,1.71,0,0,1-.38.16c-.92.28-2.65.82-2.8,4.69h.53c.14-3.49,1.56-3.94,2.42-4.21a2,2,0,0,0,.53-.21l.09-.07,0,0c1.26-.94,1.46-2.74,1.56-3.54a1.73,1.73,0,0,1,0-.29,2.28,2.28,0,0,1,1.74-2c.15-.05.29-.1.42-.16a38.84,38.84,0,0,1,7.42-2.43,16.07,16.07,0,0,0,3.8-1.23h.07a1.79,1.79,0,0,1-.56.49A.29.29,0,0,0,165,4c.08.55.06.77-.43.88a.25.25,0,0,0-.17.11.28.28,0,0,0,0,.19l.05.24c.08.3.13.52,0,.66s-.37.27-.81.37a.27.27,0,0,0-.21.29l0,.21c.08.52.1.73-.87,1a.25.25,0,0,0-.19.29.91.91,0,0,0,.08.26c.08.16.12.25.06.4-.16.39-1,1.09-3.95,2.34a.62.62,0,0,0-.17.13.84.84,0,0,0-.35-.6c.5,0,.7-.1.77-.31a.41.41,0,0,0-.09-.37.94.94,0,0,0-.28-.26.67.67,0,0,0,.35-.22.37.37,0,0,0,.05-.33c-.12-.3-.59-.43-1.28-.34l-.1-.07a.78.78,0,0,0,.59-.36.43.43,0,0,0,0-.43,1.18,1.18,0,0,0-1-.36.41.41,0,0,0-.09-.26,1.34,1.34,0,0,0-1.31-.33l0,.29a1.09,1.09,0,0,1,1,.21c0,.06,0,.07,0,.08s-.3.24-1,.24v.31c.48,0,1,.29,1,.41s-.11.14-1.2.17l0,.29c.59.17.8.39.81.53a.11.11,0,0,1-.06.1s-.26.16-.82,0l-.16,0-.09.29a.47.47,0,0,0,.15,0,1.41,1.41,0,0,1,.71.37.23.23,0,0,1,0,.17c0,.16-.23.2-1.07,0l-.09.29c.5.16.77.39.79.55a.07.07,0,0,1,0,.08c-.08.07-.4.12-1.05-.11h0l-.1.27s0,0,0,0c.4.16.69.36.75.55a.19.19,0,0,1,0,.19c-.08.11-.41.12-1.11-.25l-.15.27a1.15,1.15,0,0,1,.57.63.16.16,0,0,1,0,.13s-.18.19-1-.42l-.19.25a1.32,1.32,0,0,1,.65.85c0,.07,0,.1,0,.11s0,0-.08,0-.35-.06-.78-.58l-.24.18a1.93,1.93,0,0,0,.78.63v0a2.14,2.14,0,0,0,.82.66h0c.46.63.87,1,1.2,1h0a.35.35,0,0,0,.27-.1.36.36,0,0,0,.11-.28,1,1,0,0,0-.17-.44c.36.12.59.05.69-.07a.37.37,0,0,0,.07-.31,1.08,1.08,0,0,0-.16-.38c.41.12.7.09.84-.11a.56.56,0,0,0,.06-.44.81.81,0,0,0-.15-.3.79.79,0,0,0,.49-.12.41.41,0,0,0,.14-.37.64.64,0,0,0-.19-.34c.25,0,.4-.08.46-.31h0a.9.9,0,0,0,1,.54l.19,0c4.53-.47,5.74.52,6,1.15a4.64,4.64,0,0,0,.79,1c.2.21.46.48.75.8A17.2,17.2,0,0,1,169,19.7c.15.31.29.63.45.93a4.69,4.69,0,0,0,3.61,2.85c.08,0,.26.3.41.74a.55.55,0,0,1-.41,0,.35.35,0,0,1-.14-.13,1,1,0,0,0-.58-.43m-8,0a.1.1,0,0,0,0,0,.68.68,0,0,0-.35.66h-3.25c.38-.15.63-.62.93-1.15l.05-.06a1.22,1.22,0,0,0,0-1.5l-.1-.18a2.21,2.21,0,0,1,.38-2.83,2.39,2.39,0,0,0,.82.67,7.31,7.31,0,0,0,2.33,2.54c.15.12.29.2.35.26a.52.52,0,0,1,0,.19,1.72,1.72,0,0,1-.22.79l-.1,0a1.1,1.1,0,0,0-.61,0,.47.47,0,0,0-.29.58m-5,.53c-.05.07-.13.12-.18.18h-1.7a.83.83,0,0,1,0-.09c.07-.3.52-.34,1-.35a1.77,1.77,0,0,0,1.37-.47,1.31,1.31,0,0,0,.19-1.1l0-.1a5.72,5.72,0,0,0-.45-1.25c-.09-.19-.17-.39-.26-.58a3.66,3.66,0,0,1-.45-2.22V18c.68-.36,1.44-.76,2.37-1.19a5.07,5.07,0,0,0,.46,1.33,2.82,2.82,0,0,0-.55,3.52l.1.18c.25.48.28.52,0,1l0,.07c-.35.63-.57,1-.78.94a.87.87,0,0,0-1.09.3m-10.26-.33c.42-.1.88-.36.66-1.46a8.34,8.34,0,0,0-.5-1.33l0,0a.51.51,0,0,1,.06-.17,11.12,11.12,0,0,0,1-1.27c.23.94.57,2.35.66,2.68a1.18,1.18,0,0,1-.1.9,4.44,4.44,0,0,0-.31.87c0,.06-.19.09-.29.1a1.3,1.3,0,0,0-.29.06.68.68,0,0,0-.18.17h-1.43a1.74,1.74,0,0,1,.69-.51m-.09-.52a11.35,11.35,0,0,1,.06-1.38,3.35,3.35,0,0,1,.19.54c.14.72-.06.79-.24.84m2.09.83a6.26,6.26,0,0,1,.27-.78,1.59,1.59,0,0,0,.14-1.26c-.1-.35-.53-2.14-.75-3.06,4,.94,5.48.4,7.57-.72a4.64,4.64,0,0,0,.52,2.27c.09.2.18.39.27.61a7.19,7.19,0,0,1,.42,1.09v.11a.88.88,0,0,1-.07.7,1.4,1.4,0,0,1-1,.28c-.44,0-1.34,0-1.49.78a1.2,1.2,0,0,0,0,.19h-6a.63.63,0,0,0,.09-.2m-5-16.73a1.82,1.82,0,0,0-.78.25.87.87,0,0,0-.92.32.11.11,0,0,0,0,0,3.33,3.33,0,0,0-1.49.57s0,0,0,0A3.69,3.69,0,0,1,145.37,7a4.28,4.28,0,0,1,.86-.13.48.48,0,0,0-.12.51M144,10.84a5.61,5.61,0,0,0,1.53.25c.29.08.63.21.64.51a.78.78,0,0,1-.19.48,1.85,1.85,0,0,0-1.46-.25,1.6,1.6,0,0,1-1.1-.22,1.23,1.23,0,0,1-.54-.83s0-.09,0-.17a4.53,4.53,0,0,1-.14-.58.34.34,0,0,0,.1.12,3.13,3.13,0,0,0,1.21.68m-.7-.95v0l.06-.07h0l.1,0a1.16,1.16,0,0,0,.69.09s0,0,.11,0a2.69,2.69,0,0,1,.68.14,2.78,2.78,0,0,1-.72.19l-.7-.16a1.8,1.8,0,0,1-.27-.19m14.8,1.65s-.2.1-.76-.09l-.11,0a.57.57,0,0,0-.05-.31,1.2,1.2,0,0,0-.11-.17.61.61,0,0,0,.36-.11c.51.17.69.44.71.62a.15.15,0,0,1,0,.11m0,.29a.45.45,0,0,0,0,.11.11.11,0,0,0,0-.07l.08,0m-4,1.7c.29.1.49.06.61-.09a.43.43,0,0,0,.09-.18,1.33,1.33,0,0,1,.6.67.22.22,0,0,1,0,.07c-.14.17-.6-.11-1-.37l-.16.24c.51.37.58.67.58.75a.18.18,0,0,1,0,.12h-.08a1.23,1.23,0,0,1-.74-.44.41.41,0,0,0,.13-.09.41.41,0,0,0,.1-.34.84.84,0,0,0-.12-.37m3.45-4.13c.05.06.05.09.05.09-.08.17-.08.17-.4.13-.16,0-.36,0-.64,0h0a.89.89,0,0,0-.38-.44,1.3,1.3,0,0,0,.67-.16,1.11,1.11,0,0,1,.74.4m-1-1.17a1.14,1.14,0,0,0,.29-.12,1,1,0,0,1,1,.2c.05.07,0,.1,0,.12s-.3.23-.83.26a.29.29,0,0,0-.07-.18,1,1,0,0,0-.36-.28m2,2.09a.13.13,0,0,1,0,.1c0,.09-.51.11-1,.09a.3.3,0,0,0,0-.09.74.74,0,0,0-.36-.49.71.71,0,0,0,.47-.07v.07a1.05,1.05,0,0,1,.79.38m-.65-1.06c.48,0,.7.08.73.16a0,0,0,0,1,0,.06s-.15.15-.7.16c0,0,0,0,0,0a.42.42,0,0,0,0-.35m-1.32.67c.52.16.76.36.77.5a.11.11,0,0,1-.06.12s-.27.16-.9,0h0a.34.34,0,0,0-.05-.2.4.4,0,0,0-.11-.14,1.12,1.12,0,0,0,.26-.11.45.45,0,0,0,.11-.14m-.27.88a1.11,1.11,0,0,1,.63.42.28.28,0,0,1,0,.2c-.05.14-.12.15-.91,0h0a.63.63,0,0,0-.19-.29.49.49,0,0,0,.51-.27m-.44,1a.4.4,0,0,0,.08-.09c.41.15.65.36.69.51s0,.08,0,.1-.36.15-1.08-.11h0a.85.85,0,0,0-.17-.27.7.7,0,0,0,.48-.14m-.36.84a.21.21,0,0,0,.05-.11,1.13,1.13,0,0,1,.66.52.21.21,0,0,1,0,.19c-.07.1-.47.17-1.26-.25l-.07.13h0a1,1,0,0,0-.12-.29c.36.09.61,0,.75-.17M155.06,15a1.24,1.24,0,0,0,.09-.14c.49.42.61.8.55.86s0,0,0,0-.34-.08-.81-.64a.31.31,0,0,0,.21-.09m.12-.53,0,0a.46.46,0,0,0-.05-.14.52.52,0,0,0,.57-.12l.06-.1a1.35,1.35,0,0,1,.6.75s0,.07,0,.07-.44.06-1.14-.48m.63-.65-.06.14a.1.1,0,0,1,0,0,.91.91,0,0,0-.16-.34c.39.09.68,0,.82-.16a1.18,1.18,0,0,1,.67.57.17.17,0,0,1,0,.17c-.07.1-.46.13-1.25-.34m.69-.68a.77.77,0,0,0,0-.18,1.73,1.73,0,0,0-.16-.27h0a.74.74,0,0,0,.42-.1c.49.17.75.41.76.57s0,.08,0,.09-.4.11-1-.12m.42-.81a.92.92,0,0,0,0-.19,1.33,1.33,0,0,0-.17-.26h0a.43.43,0,0,0,.35-.14l.14,0a1.21,1.21,0,0,1,.6.36.26.26,0,0,1,0,.23c-.06.15-.16.17-.92,0m-19.57,13H176c.06.46.11.9.17,1.36-8.21,12.07-9.7,19.73-11,26.49-.13.69-.26,1.35-.4,2l-3.26-11.56h.63V41.42h-2.19V35.26l1.47-1.54v-6.6h-2.14v2.32h-1.08V27.11h-3v2.32h-.71V27.11h-2.53v6.6l1.48,1.54v6.15h-2.21v2.14h.64l-3.3,11.35-.36-1.81c-1.31-6.76-2.78-14.42-11-26.49.05-.46.11-.9.15-1.36m.19,18.5c0-.75,1-1.61,2.08-2.12a8.14,8.14,0,0,0,3.3-3.14c.32.67.6,1.34.85,2-.25,1-3.94,3.32-5.42,4l-.41.2,0,0-.42.24a10.41,10.41,0,0,0,0-1.24m0,2.26.86-.49a11.63,11.63,0,0,0,2.68,2c.15.09.27.16.32.2a1.48,1.48,0,0,1,.51.88l-.13,0-.9.43c-2.72-1.1-3.27-1.92-3.35-3.1m3.14,4.21.13-.06.28-.13.93-.44a2.87,2.87,0,0,1,0,.53,5,5,0,0,0,0,.53c0,.72-.85,1.24-1.29,1.37a7.18,7.18,0,0,0-2.17,1.33c.08-.3.14-.61.22-.94l.11-.54h-.55a5.23,5.23,0,0,0-.61,0h-.14a24.22,24.22,0,0,1,3.07-1.7"/><path class="cls-1" d="M53.71,83.14c-.56,0-1.45.05-1.59.05s-1.16-.05-2-.05c-.2,0-.3,0-.3.15s.08.28.15.28a2.37,2.37,0,0,1,.64.06c.63.13.78.44.82,1.13s0,1.2,0,4.31V91.4c0,2.05-.22,3.74-1.1,4.87a3.9,3.9,0,0,1-3,1.43,3.62,3.62,0,0,1-2.86-1.08c-.81-.82-1.43-2.05-1.43-4.92V89.07c0-3.1,0-3.67,0-4.31s.19-1.06.71-1.13a1.77,1.77,0,0,1,.47-.06c.08,0,.16-.2.16-.28s-.1-.15-.32-.15c-.56,0-1.7.05-1.88.05s-1.33-.05-2.19-.05c-.19,0-.3,0-.3.15s.08.28.15.28a2.46,2.46,0,0,1,.65.06c.64.13.78.44.82,1.13s0,1.2,0,4.31v2.74c0,2.91.72,4.29,1.65,5.23A5.64,5.64,0,0,0,47,98.46,5.4,5.4,0,0,0,50.91,97c1.51-1.41,1.74-3.8,1.74-6v-2c0-3.1,0-3.67,0-4.31s.19-1,.7-1.13a1.5,1.5,0,0,1,.48-.06c.07,0,.15-.2.15-.28s-.09-.15-.3-.15"/><path class="cls-1" d="M141.5,82.85c-5.23,0-7.48,4.57-7.48,7.78,0,3.58,2.16,7.82,7.37,7.82,4.57,0,7.58-3.68,7.58-8.14a7.08,7.08,0,0,0-7.46-7.47m.39,14.85c-3.41,0-6.07-3-6.07-7.62,0-4.35,2.37-6.54,5.54-6.54,3,0,5.77,2.57,5.77,7.34,0,5.78-3.53,6.82-5.24,6.82"/><path class="cls-1" d="M179.57,94.59a.37.37,0,0,0-.35.29,3.82,3.82,0,0,1-.69,1.67,4.23,4.23,0,0,1-3.31,1c-4.06,0-5.82-3.48-5.82-7.28,0-2,.31-3.8,1.71-5.2.66-.67.8-1.46,3.33-1.46a6.11,6.11,0,0,1,3.8,1.14,2.85,2.85,0,0,1,.78,2c0,.29.18.42.31.42s.15-.11.17-.42,0-1.38.06-2,.09-1,.09-1.12,0-.19-.25-.22a5.75,5.75,0,0,1-1.93-.3,17.45,17.45,0,0,0-2.75-.24,5.48,5.48,0,0,0-4.9,2.14,8.11,8.11,0,0,0-2.12,5.43A7.76,7.76,0,0,0,170,96.3a6.45,6.45,0,0,0,5.38,2.16,8.25,8.25,0,0,0,3.06-.46c.34-.16.38-.2.48-.58.2-.68.78-2.41.78-2.55s0-.29-.13-.29"/><path class="cls-1" d="M233.56,97.76a6.37,6.37,0,0,1-.85-.09c-.57-.08-.68-.52-.74-1.08-.1-.85-.1-2.42-.1-4.33V89.07c0-3.1,0-3.67,0-4.3s.19-1,.7-1.13a1.92,1.92,0,0,1,.47-.06c.07,0,.16-.2.16-.28s-.09-.15-.3-.15c-.58,0-1.77.05-1.85.05s-1.31-.05-1.92-.05c-.22,0-.31,0-.31.15s.07.28.16.28a2.52,2.52,0,0,1,.59.06c.42.11.6.44.63,1.13s0,1.2,0,4.3v3.18c0,1.91,0,3.48-.1,4.33-.06.56-.16,1-.55,1.08a2.27,2.27,0,0,1-.56.09c-.12,0-.15.21-.15.26s.09.17.3.17c.56,0,1.78-.06,1.87-.06s1.27.06,2.32.06c.21,0,.31-.06.31-.17s0-.26-.16-.26"/><path class="cls-1" d="M75.73,83.14c-.77,0-1.4.05-1.62.05s-1.11-.05-2-.05c-.24,0-.39,0-.39.13s0,.3.15.3a4.41,4.41,0,0,1,.93.09c.59.17.73.6.75,1.9l.2,9.94c-.6-.66-8.79-11.68-9.1-12a.49.49,0,0,0-.11-.12.41.41,0,0,0-.28-.09l-.44,0c-.36,0-1.72,0-2.37,0-.23,0-.35,0-.35.16s.06.27.15.27a3.62,3.62,0,0,1,1,.12c.52.15.75.95.78,2.59V95.1c0,1.81-.1,2.38-.57,2.53a2.72,2.72,0,0,1-.78.12c-.1,0-.16.18-.16.26s.1.18.31.18c.84,0,1.64-.06,1.82-.06s.92.06,2,.06c.22,0,.34,0,.34-.18s-.06-.26-.16-.26a4.19,4.19,0,0,1-1-.12c-.51-.16-.69-.68-.73-2.3V85.56c.61.71,8.68,11.39,8.88,11.57,1,1.07,1.32,1.2,1.46,1.2s.21-.1.21-1.42V85.4c0-1.19.07-1.63.71-1.76a1.45,1.45,0,0,1,.45-.06c.15,0,.2-.22.2-.3s-.12-.13-.34-.13"/><path class="cls-1" d="M93.15,94.58c-.14,0-.18.1-.2.25a3.76,3.76,0,0,1-.53,1.28c-.31.47-.48.92-1.16,1.16a8,8,0,0,1-2.08.19c-2.24,0-2.58-.26-2.65-1.64,0-.41,0-2.71,0-3.39V90.66a.14.14,0,0,1,.16-.15c.19,0,.86,0,1.56,0l.89,0,.41,0,.39,0,.22,0c.61.12,1,1.2,1.16,1.51a1.5,1.5,0,0,1,.17.65c0,.09.05.16.17.15s.14-.23.13-.39,0-1.66,0-2.05c0-.66.08-1.77.08-1.9l0,0c0-.07-.05-.11-.11-.11s-.19.1-.32.26-.54,1-1.1,1.05-3.32,0-3.61,0c-.11,0-.13-.06-.13-.2V84.12c0-.14.05-.21.13-.21.26,0,2.73,0,3.13.06h.12l.25,0c1,.13,1.44,1.3,1.66,1.54a1.61,1.61,0,0,1,.32.66c0,.14.12.23.25.19s.1-.15.09-.26-.21-1.86-.24-2.06c-.08-.52-.06-.72-.08-.86s-6.44,0-6.59,0S84,83.14,83,83.14c-.26,0-.37,0-.37.16s.08.28.19.28a3.54,3.54,0,0,1,.76.06c.76.13,1,.44,1,1.13s.05,1.2.05,4.3v3.19a41.14,41.14,0,0,1-.12,4.33c-.09.56-.21,1-.67,1.08a3.24,3.24,0,0,1-.67.09C83,97.76,83,98,83,98s.11.17.35.17c.69,0,2.13-.06,2.25-.06.66,0,2.18.11,5.62.11H92c.72,0,.86,0,1-.33a21.85,21.85,0,0,0,.35-3c0-.21,0-.29-.15-.29"/><path class="cls-1" d="M88.47,90.58l.4,0-.4,0"/><path class="cls-1" d="M137.31,67.39a.41.41,0,1,0,.41.42.42.42,0,0,0-.41-.42"/><path class="cls-1" d="M140.17,69.68l.55-1.48h1.35l.55,1.48h.55l-1.59-3.83h-.12l-1.67,3.83Zm1.21-3.16L142,68H140.8Z"/><path class="cls-1" d="M143.85,65.92v3.76h1.4a1.85,1.85,0,0,0,1.92-2c0-1.1-.51-1.78-1.66-1.78Zm2.81,1.78c0,1.23-.71,1.77-1.55,1.77h-.79V66.12h.92c.88,0,1.42.51,1.42,1.58"/><path class="cls-1" d="M148.35,67.61a.33.33,0,0,0,.32-.33.33.33,0,0,0-.32-.35.34.34,0,0,0-.31.35.33.33,0,0,0,.31.33"/><polygon class="cls-1" points="153.19 65.92 151.59 68.83 150.12 65.92 150.03 65.92 149.48 69.68 149.86 69.68 150.12 66.85 151.48 69.64 151.53 69.64 152.92 66.85 153.24 69.68 153.73 69.68 153.28 65.92 153.19 65.92"/><path class="cls-1" d="M156.24,66.08a1.22,1.22,0,0,1,1,.44h.08l.1-.41a2.73,2.73,0,0,0-1.18-.26,1.87,1.87,0,0,0-2,2,1.79,1.79,0,0,0,1.91,1.94,2,2,0,0,0,1.15-.31v-.36h-.08a1.37,1.37,0,0,1-1,.45c-1,0-1.45-.8-1.45-1.71,0-1.07.6-1.75,1.45-1.75"/><path class="cls-1" d="M160.11,66.08a1.24,1.24,0,0,1,1,.44h.06l.12-.41a2.84,2.84,0,0,0-1.18-.26,1.88,1.88,0,0,0-2,2,1.78,1.78,0,0,0,1.9,1.94,2,2,0,0,0,1.15-.31v-.36h-.05a1.46,1.46,0,0,1-1,.45c-1,0-1.47-.8-1.47-1.71,0-1.07.6-1.75,1.47-1.75"/><path class="cls-1" d="M164,66.08a1.23,1.23,0,0,1,1,.44H165l.1-.41a2.76,2.76,0,0,0-1.18-.26,1.86,1.86,0,0,0-2,2,1.78,1.78,0,0,0,1.89,1.94,2.05,2.05,0,0,0,1.16-.31v-.36H165a1.43,1.43,0,0,1-1,.45c-1,0-1.46-.8-1.46-1.71,0-1.07.59-1.75,1.46-1.75"/><polygon class="cls-1" points="168.64 69.68 167.41 67.55 168.55 65.92 168.19 65.92 167.28 67.38 166.44 65.92 165.9 65.92 166.99 67.81 165.78 69.68 166.16 69.68 167.11 68.01 168.09 69.68 168.64 69.68"/><path class="cls-1" d="M171.27,66.08a1.24,1.24,0,0,1,1,.44h.06l.12-.41a2.83,2.83,0,0,0-1.18-.26,1.87,1.87,0,0,0-2,2,1.78,1.78,0,0,0,1.91,1.94,2,2,0,0,0,1.15-.31v-.36h-.05a1.48,1.48,0,0,1-1,.45c-1,0-1.46-.8-1.46-1.71,0-1.07.6-1.75,1.46-1.75"/><rect class="cls-1" x="173.2" y="65.92" width="0.47" height="3.76"/><path class="cls-1" d="M175.72,68.22a.42.42,0,1,0-.39-.41.41.41,0,0,0,.39.41"/><path class="cls-1" d="M137.36,61.11a.42.42,0,0,0,0,.83.42.42,0,0,0,0-.83"/><path class="cls-1" d="M140.77,63.25a.92.92,0,0,1-.82-.59h0l-.1.5a1.53,1.53,0,0,0,.88.33,1.16,1.16,0,0,0,1.3-1.17c0-.62-.45-.87-.88-1.06s-.8-.3-.8-.79a.66.66,0,0,1,.68-.66.64.64,0,0,1,.65.5h.06l.14-.45a1.1,1.1,0,0,0-.78-.27,1,1,0,0,0-1.15,1c0,.69.56.88,1,1.06s.63.34.63.74a.8.8,0,0,1-.8.81"/><path class="cls-1" d="M148.32,61.45a1.82,1.82,0,0,0-2-1.87,1.88,1.88,0,0,0-2,2,1.83,1.83,0,0,0,2,1.89,1.9,1.9,0,0,0,2-2m-2,1.84c-.84,0-1.44-.62-1.44-1.69s.45-1.84,1.51-1.84,1.45.69,1.45,1.69-.47,1.84-1.52,1.84"/><polygon class="cls-1" points="151 59.65 151 63.42 152.92 63.42 152.92 63.16 151.47 63.16 151.47 59.65 151 59.65"/><path class="cls-1" d="M155,61.6a1.83,1.83,0,0,0,2,1.89,1.9,1.9,0,0,0,2-2,1.82,1.82,0,0,0-2-1.87,1.89,1.89,0,0,0-2,2m3.49-.15c0,.94-.48,1.84-1.52,1.84-.83,0-1.45-.62-1.45-1.69s.47-1.84,1.52-1.84,1.45.69,1.45,1.69"/><polygon class="cls-1" points="165.45 59.65 165.36 59.65 163.76 62.57 162.29 59.65 162.22 59.65 161.65 63.42 162.04 63.42 162.29 60.57 163.65 63.36 163.69 63.36 165.1 60.57 165.42 63.42 165.89 63.42 165.45 59.65"/><polygon class="cls-1" points="170.48 59.91 170.48 59.65 168.56 59.65 168.56 63.42 170.48 63.42 170.48 63.16 169.04 63.16 169.04 61.53 170.32 61.53 170.32 61.27 169.04 61.27 169.04 59.91 170.48 59.91"/><rect class="cls-1" x="173.15" y="59.65" width="0.47" height="3.76"/><path class="cls-1" d="M176.09,61.53a.41.41,0,0,0-.4-.42.42.42,0,1,0,.4.42"/><path class="cls-1" d="M34.17,97.76a8.29,8.29,0,0,1-.88-.06,4.73,4.73,0,0,1-2.78-1.28c-1.47-1.29-2.28-2.75-4-5.1,2-1.66,2.76-2.8,2.76-4.26a4.11,4.11,0,0,0-1.57-3,7.48,7.48,0,0,0-4.07-.87c-.7,0-2,.05-2.26.05s-1.54-.05-2.56-.05c-.26,0-.37,0-.37.15s.1.28.19.28a3.58,3.58,0,0,1,.77.06c.75.13.93.44,1,1.13s0,1.2,0,4.31v3.18a40.73,40.73,0,0,1-.12,4.33c-.08.57-.19,1-.66,1.08a3.31,3.31,0,0,1-.68.09c-.14,0-.18.21-.18.26s.11.18.36.18c.69,0,2.12-.06,2.16-.06s1.53.06,2.79.06c.25,0,.38-.06.38-.18s-.05-.26-.2-.26a8.82,8.82,0,0,1-1-.09c-.7-.08-.83-.52-.9-1.08-.1-.85-.1-2.42-.1-4.33v-.33c0-.1,0-.16.15-.16l2.26,0a.48.48,0,0,1,.32.11c.45.52,1.11,1.8,2,2.95,1.13,1.43,1.85,2.47,2.82,2.93a5.19,5.19,0,0,0,2.43.38h1.62c.41,0,.54,0,.54-.18s0-.26-.21-.26m-9.93-6.55a4,4,0,0,1-1.87-.32.28.28,0,0,1-.15-.25v-6.5a.22.22,0,0,1,.17-.23,3.26,3.26,0,0,1,1.11-.12c2.43,0,3.83,1.48,3.83,4a3.42,3.42,0,0,1-1.39,3.06,3.21,3.21,0,0,1-1.7.39"/><path class="cls-1" d="M221,94.59a.36.36,0,0,0-.34.29,3.8,3.8,0,0,1-.71,1.67c-.75.82-1.88,1-3.3,1-4.06,0-5.81-3.48-5.81-7.28,0-2,.32-3.8,1.7-5.2.67-.67.82-1.46,3.34-1.46a6,6,0,0,1,3.78,1.14,2.78,2.78,0,0,1,.81,2c0,.29.15.42.3.42s.16-.11.18-.42,0-1.38,0-2,.1-1,.1-1.12,0-.19-.25-.22a5.84,5.84,0,0,1-1.94-.3,17.2,17.2,0,0,0-2.75-.24A5.44,5.44,0,0,0,211.24,85a8.1,8.1,0,0,0-2.14,5.43,7.82,7.82,0,0,0,2.28,5.88,6.49,6.49,0,0,0,5.39,2.16,8.23,8.23,0,0,0,3.05-.46c.35-.16.38-.2.5-.58.18-.68.78-2.41.78-2.55s0-.29-.14-.29"/><path class="cls-1" d="M7.85,89.71C9,89,10.38,88,10.38,86.4c0-1-.76-3.26-5-3.26-1,0-1.93.05-2.48.05-.11,0-1.54-.05-2.56-.05-.25,0-.38,0-.38.15s.1.28.19.28a3.61,3.61,0,0,1,.78.06c.75.13.93.44,1,1.13S2,85.88,2,89v3.35c0,1.91,0,3.49-.1,4.33-.1.58-.21,1-.66,1.08a3.49,3.49,0,0,1-.68.09A.19.19,0,0,0,.35,98c0,.13.1.18.37.18.68,0,2.11-.06,2.22-.06s2.51.11,3,.11c3.91,0,5.23-2.21,5.23-4.33a4.33,4.33,0,0,0-3.34-4.2M3.81,84c0-.11.07-.18.27-.21a10.73,10.73,0,0,1,1.53-.1c2.24,0,3.07,1.76,3.07,3.41a2.84,2.84,0,0,1-.82,2c-.48.49-1.24.53-2.51.53A8.66,8.66,0,0,1,4,89.56a.19.19,0,0,1-.15-.22ZM6.24,97.6a4,4,0,0,1-1.63-.3c-.71-.29-.71-.57-.77-1.54,0-.31,0-2.78,0-4.31V90.32c0-.09,0-.14.13-.14a13.61,13.61,0,0,1,1.41,0,4.41,4.41,0,0,1,1.9.57,4.57,4.57,0,0,1,2.19,4c0,2.25-2,2.82-3.21,2.82"/><path class="cls-1" d="M255.18,83.21c-.77,0-1.38,0-1.62,0s-1.11,0-2,0c-.24,0-.39,0-.39.13s0,.29.16.29a4.82,4.82,0,0,1,.93.1c.58.17.71.6.74,1.9l.21,9.95c-.6-.67-8.79-11.68-9.09-12a.38.38,0,0,0-.12-.13.39.39,0,0,0-.28-.1l-.43,0c-.36,0-1.72,0-2.39,0-.22,0-.34,0-.34.16s.06.28.14.28a3.94,3.94,0,0,1,1,.11c.51.16.76,1,.78,2.58v8.78c0,1.8-.09,2.4-.56,2.53a2.66,2.66,0,0,1-.79.11c-.09,0-.14.2-.14.28s.11.16.3.16c.85,0,1.65-.06,1.83-.06s.93.06,2,.06c.24,0,.34,0,.34-.16s-.06-.28-.16-.28a3.93,3.93,0,0,1-.94-.11c-.51-.16-.71-.68-.74-2.33V85.62c.6.71,8.67,11.37,8.88,11.57,1,1.05,1.31,1.18,1.46,1.18s.2-.09.2-1.4V85.46c0-1.2.08-1.63.7-1.76a1.47,1.47,0,0,1,.46-.07c.13,0,.22-.22.22-.29s-.14-.13-.34-.13"/><polygon class="cls-1" points="107.92 98.24 107.85 98.24 107.59 98.24 107.92 98.24"/><path class="cls-1" d="M110.3,94.57c-.13,0-.18.1-.2.26a6.21,6.21,0,0,1-.83,1.61,2.68,2.68,0,0,1-1,.82,7.55,7.55,0,0,1-1.21.21c-1.78,0-2.37-.15-2.73-.46s-.52-1.63-.52-4.55V89.07c0-3.1,0-3.67.06-4.31s.22-1,.89-1.13a4.05,4.05,0,0,1,.75-.06c.08,0,.17-.2.17-.28s-.12-.15-.36-.15c-.68,0-2.34.05-2.46.05s-1.55-.05-2.56-.05c-.26,0-.37,0-.37.15s.09.28.19.28a3.49,3.49,0,0,1,.76.06c.74.13.94.44,1,1.13s.05,1.2.05,4.31v3.18c0,1.9,0,3.49-.11,4.33-.09.57-.21,1-.67,1.08a3.09,3.09,0,0,1-.67.08c-.14,0-.19.22-.19.27s.12.18.38.18c.67,0,2-.06,2.22-.06,1.16,0,2.46.08,5,.11h.64s.66,0,.68,0c.35,0,1.27-3.1,1.27-3.32s0-.3-.13-.3"/><path class="cls-1" d="M127.31,94.57c-.13,0-.18.1-.2.26a5.72,5.72,0,0,1-.84,1.61,2.39,2.39,0,0,1-1,.82,7.07,7.07,0,0,1-1.2.21c-1.78,0-2.36-.15-2.73-.46s-.49-1.63-.49-4.55V89.07c0-3.1,0-3.67,0-4.31s.23-1,.89-1.13a4.1,4.1,0,0,1,.75-.06c.09,0,.19-.2.19-.28s-.11-.15-.36-.15c-.7,0-2.34.05-2.47.05s-1.55-.05-2.56-.05c-.27,0-.38,0-.38.15s.1.28.19.28a3.53,3.53,0,0,1,.77.06c.75.13.94.44,1,1.13s0,1.2,0,4.31v3.18a41.7,41.7,0,0,1-.12,4.33c-.1.57-.2,1-.66,1.08a3.4,3.4,0,0,1-.7.08c-.12,0-.17.22-.17.27s.11.18.36.18c.69,0,2-.06,2.23-.06,1.16,0,2.47.08,5,.11h.64s.67,0,.68,0c.34,0,1.27-3.1,1.27-3.32s0-.3-.14-.3"/><polygon class="cls-1" points="124.93 98.24 124.86 98.24 124.6 98.24 124.93 98.24"/><path class="cls-1" d="M289.63,94.57c-.12,0-.17.1-.19.26a6.53,6.53,0,0,1-.84,1.61,2.53,2.53,0,0,1-1,.82,7.28,7.28,0,0,1-1.2.21c-1.78,0-2.37-.15-2.73-.46s-.5-1.63-.5-4.55V89.07c0-3.1,0-3.67,0-4.31s.24-1,.89-1.13a4.21,4.21,0,0,1,.75-.06c.1,0,.19-.2.19-.28s-.12-.15-.37-.15c-.7,0-2.36.05-2.46.05s-1.55-.05-2.57-.05c-.26,0-.37,0-.37.15s.09.28.2.28a3.47,3.47,0,0,1,.76.06c.75.13.93.44,1,1.13s0,1.2,0,4.31v3.18c0,1.9,0,3.49-.1,4.33-.1.57-.21,1-.67,1.08a3.28,3.28,0,0,1-.68.08c-.15,0-.18.22-.18.27s.11.18.34.18c.7,0,2-.06,2.25-.06,1.15,0,2.46.08,5,.11h.64s.67,0,.67,0c.35,0,1.29-3.1,1.29-3.32s0-.3-.15-.3"/><polygon class="cls-1" points="287.26 98.24 287.18 98.24 286.94 98.24 287.26 98.24"/><polygon class="cls-1" points="304.06 98.24 304.03 98.24 303.73 98.24 304.06 98.24"/><path class="cls-1" d="M306.46,94.57c-.14,0-.18.1-.22.26a5.68,5.68,0,0,1-.83,1.61,2.52,2.52,0,0,1-1,.82,7.14,7.14,0,0,1-1.2.21c-1.77,0-2.37-.15-2.73-.46s-.5-1.63-.5-4.55V89.07c0-3.1,0-3.67,0-4.31s.22-1,.89-1.13a4.07,4.07,0,0,1,.75-.06c.07,0,.18-.2.18-.28s-.12-.15-.38-.15c-.67,0-2.34.05-2.45.05s-1.54-.05-2.57-.05c-.26,0-.36,0-.36.15s.09.28.18.28a3.6,3.6,0,0,1,.78.06c.74.13.93.44,1,1.13s0,1.2,0,4.31v3.18c0,1.9,0,3.49-.11,4.33-.09.57-.21,1-.66,1.08a3.45,3.45,0,0,1-.68.08c-.14,0-.19.22-.19.27s.12.18.37.18c.7,0,2-.06,2.24-.06,1.16,0,2.45.08,5,.11h.63s.67,0,.69,0c.33,0,1.27-3.1,1.27-3.32s0-.3-.13-.3"/><path class="cls-1" d="M272.93,94.58c-.15,0-.19.1-.2.25a4.4,4.4,0,0,1-.54,1.28c-.31.47-.49.92-1.15,1.16a8.1,8.1,0,0,1-2.1.19c-2.23,0-2.57-.26-2.64-1.64,0-.41,0-2.71,0-3.39V90.66c0-.08,0-.15.16-.15s.86,0,1.55,0l.91,0,.4,0,.39,0,.22,0c.6.12,1,1.2,1.17,1.51a2.27,2.27,0,0,1,.16.65.14.14,0,0,0,.17.15c.15,0,.14-.23.12-.39s0-1.66,0-2.05c0-.66.09-1.77.06-1.9v0a.09.09,0,0,0-.1-.11c-.09,0-.18.1-.36.26s-.52,1-1.05,1.05-3.33,0-3.63,0c-.1,0-.13-.06-.13-.2V84.12c0-.14,0-.21.13-.21.25,0,2.73,0,3.12.06h.12l.28,0c1,.13,1.44,1.3,1.66,1.54a1.82,1.82,0,0,1,.32.66c0,.14.12.23.25.19s.09-.15.09-.26-.2-1.86-.23-2.06c-.06-.52,0-.72-.06-.86s-6.45,0-6.62,0-1.54-.05-2.57-.05c-.25,0-.38,0-.38.16s.1.28.19.28a3.72,3.72,0,0,1,.78.06c.74.13.92.44,1,1.13s0,1.2,0,4.3v3.19a39.8,39.8,0,0,1-.12,4.33c-.09.56-.2,1-.65,1.08a3.34,3.34,0,0,1-.68.09c-.14,0-.18.21-.18.26s.12.17.38.17c.68,0,2.1-.06,2.22-.06.66,0,2.18.11,5.62.11h.79c.72,0,.86,0,1-.33a23.36,23.36,0,0,0,.32-3c0-.21,0-.29-.12-.29"/></g></g></svg>