<svg xmlns="http://www.w3.org/2000/svg" viewBox="0 0 309.52 89"><defs><style>.cls-1{fill:#231f20;fill-rule:evenodd;}</style></defs><title>Asset 3</title><g id="Layer_2" data-name="Layer 2"><g id="Livello_1" data-name="Livello 1"><path class="cls-1" d="M63.85,30.29Q61,33.21,57.9,36a28,28,0,0,0-13.58-9.88A27,27,0,0,0,24.67,27.2,27.34,27.34,0,0,0,12.36,38.36,28.76,28.76,0,0,0,8.84,57.51a29.79,29.79,0,0,0,7.91,15.55,24.21,24.21,0,0,0,3.12,2.74A25.6,25.6,0,0,0,32.23,81C39.91,82.1,45.79,79.15,50,75.8a22.65,22.65,0,0,0,5.48-6.26,18.42,18.42,0,0,0,2.74-9c-5.89-.09-12,0-17.91,0V52.83H67.6c.29,9-1.7,15.74-5.06,21.27A30.45,30.45,0,0,1,48.41,86.3a32.71,32.71,0,0,1-10.58,2.59A34.67,34.67,0,0,1,26,87.8a35,35,0,0,1-16.29-10,35.93,35.93,0,0,1-9-17.37A36.78,36.78,0,0,1,.31,48.28a36.05,36.05,0,0,1,3-10.19A35.81,35.81,0,0,1,34.9,17a35,35,0,0,1,9.57,1.05A35.46,35.46,0,0,1,63.85,30.29Z"/><path class="cls-1" d="M158,18.47h8.45V58.15c0,6.69.82,12.28,3.43,16.41s6.78,6.52,13.32,6.52c13.06,0,16.83-9.59,16.83-22.85V18.55c2.63-.18,5.6,0,8.38-.08,0,0,.07,0,.07,0,0,11.91,0,23.91,0,35.9a103.77,103.77,0,0,1-.23,11.73c-.82,7.06-3.54,12.35-7.6,16.33S190.94,89,183.2,89s-13.47-2.59-17.41-6.52a26.25,26.25,0,0,1-7.64-16.29,108.42,108.42,0,0,1-.23-11.73V18.6C157.91,18.54,157.91,18.49,158,18.47Z"/><path class="cls-1" d="M299.7,18.47h8.41V87.54h-8.45V18.6C299.66,18.54,299.65,18.49,299.7,18.47Z"/><path class="cls-1" d="M280.86,43.22a29.8,29.8,0,0,0-14-18.83,42.79,42.79,0,0,0-16.44-5.45c-6.54-.88-14-.28-21.42-.46,0,0,0,.06,0,.12V87.54c7.44-.16,15,.4,21.38-.46a43.58,43.58,0,0,0,16.44-5.45,29.82,29.82,0,0,0,13.94-18.87A43.48,43.48,0,0,0,280.86,43.22Zm-17.6,31c-6.29,4.22-15.11,5.89-25.82,5.59V26.31c0-.07,0-.1.08-.11,16-.36,28,3.44,33.23,13.93a27.6,27.6,0,0,1,2.78,12.93C273.37,63.43,269.59,70,263.26,74.21Z"/><path class="cls-1" d="M111.06,15.73A22.33,22.33,0,0,0,110,18.05c-2.36,5.24-4.86,10.48-7.22,15.67-2.72,6-5.57,12-8.22,18C89.28,63.53,83.65,75.24,78.36,87a1,1,0,0,0-.16.54h9c2.67-5.77,5.26-11.63,8-17.37h31.77c2.72,5.72,5.3,11.58,8,17.37h9.06Q127.54,51.6,111.06,15.73ZM98.7,62.44a2,2,0,0,1,.27-.85c1.93-4.33,3.9-8.78,5.83-13.2,2.07-4.74,4.17-9.49,6.22-14.2q6.28,14.06,12.42,28.25Z"/><polygon class="cls-1" points="296.52 4.87 303.02 0 309.52 9.51 304.64 12.99 296.52 4.87"/></g></g></svg>