<svg xmlns="http://www.w3.org/2000/svg" viewBox="0 0 378.49 62.5"><defs><style>.cls-1{fill:#231f20;}</style></defs><title>Asset 1</title><g id="Layer_2" data-name="Layer 2"><g id="Layer_1-2" data-name="Layer 1"><path class="cls-1" d="M215,39.76c-2.37,12.64-10.91,22.18-19.87,22.18H182.86c-1.88,0-2.55-.78-2.55-3V31.37h4.51c8.92,0,13.32,8.65,13.71,17.22v.12H199V14.43h-.46v.12c-.49,10.6-5.38,16.21-14.14,16.21h-4.08V4.39c0-2.1.62-2.88,2.27-2.88l10.46,0c15,0,18.66,15.5,19.53,22.17v.11h.52L210.38,1V.91H160.75v.57h6.59c2.69,0,4.36,2,4.36,5.18v50c0,3.2-1.75,5.27-4.45,5.27h-6.5v.57h51.57l3.24-22.7,0-.14h-.52Z"/><path class="cls-1" d="M137.9.91h-27.8v.57h6.59c2.65,0,4.11,1.81,4.11,5.09V56.94c0,3.29-1.49,5.09-4.19,5.09h-6.33v.47h29.65V62h-6.07c-2.76,0-4.1-1.61-4.1-4.91V33.82h10.31a27.54,27.54,0,0,0,15.63-4.49c4.18-2.91,6.49-6.81,6.49-11C162.17,7.92,152.41.91,137.9.91m-8.16,3.44c0-2.39.55-2.87,3.24-2.87h5.6c8.76,0,13.59,5.9,13.59,16.62,0,3.85-1.26,9.26-3.59,11.72-2.16,2.45-5.19,3.45-10.43,3.45h-8.42Z"/><path class="cls-1" d="M378.12,61.94c-3.39,0-5.64-.61-8.34-9L352.62.08l0-.08h-.3V.12c0,4.61-5.25,9.39-5.31,9.44l0,0L334.86,41.18c-4.1,9.47-11.61,20.76-24.09,20.76h-7.44c-2.39,0-3.5-1.39-3.5-4.36v-51c0-3.31,1.49-5.14,4.19-5.14h6.07V.85H280.27v.57h6.59c2.61,0,4.1,1.87,4.1,5.14V56.5c0,3.86-1.51,5.44-5.23,5.44h-3.13c-6,0-10.31-5.16-12.39-14.93-1.9-9-7-12.9-20.17-15.36,7-.56,11.76-1.67,14.89-3.45,4.78-2.8,6.64-6.1,6.64-11.8C271.58,7,262,.9,247.11.9H219.83v.57h6.5c2.65.09,4.11,1.9,4.11,5.09V56.74c0,3.24-1.56,5.18-4.19,5.18h-6.5v.57h29.9v-.57h-6.16c-3,0-4.19-1.48-4.19-5.27V31.72h7a14,14,0,0,1,10,3.69c2.77,2.59,3.77,5,5.09,12.1,1.9,10.23,7.43,15,17.41,15h48.61L335.91,40h20.85l5.11,16.05c.59,1.79.52,3.21-.2,4.21-1,1.37-3,1.66-4.43,1.66h-4.17v.57h25.42v-.57ZM347.23,10.3l9.33,29.18H336.11Zm-107.93-6c0-1.82.81-2.82,2.29-2.82h5.86c12.45,0,14.31,9,14.31,14.38,0,9.59-5,15.32-13.45,15.32h-9Z"/><path class="cls-1" d="M89.52,52.91,72.35.08l0-.08H72V.12c0,4.61-5.25,9.39-5.31,9.44l0,0L54.59,41.19C50.48,50.65,43,61.94,30.5,61.94H23.06c-2.39,0-3.5-1.39-3.5-4.36v-51c0-3.32,1.49-5.14,4.19-5.14h6.07V.85H0v.57H6.59c2.61,0,4.11,1.87,4.11,5.14V57.11c-.24,3.52-1.38,4.83-4.19,4.83H0v.57H47.18L55.64,40H76.5l5.11,16c.59,1.79.52,3.21-.2,4.21-1,1.37-3,1.66-4.43,1.66H72.81v.57H98.23v-.57h-.38c-3.39,0-5.64-.61-8.34-9M67,10.3,76.3,39.48H55.85Z"/></g></g></svg>