<?xml version="1.0" encoding="utf-8"?>
<!-- Generator: Adobe Illustrator 21.0.0, SVG Export Plug-In . SVG Version: 6.00 Build 0)  -->
<svg version="1.1" id="Layer_1" xmlns="http://www.w3.org/2000/svg" xmlns:xlink="http://www.w3.org/1999/xlink" x="0px" y="0px"
	 viewBox="0 0 578 63" style="enable-background:new 0 0 578 63;" xml:space="preserve">
<g>
	<path d="M38.6,14.5H46v38.9h-7.4V14.5z"/>
	<path d="M49.5,14.5H71v7.3h-7.1v31.6h-7.5V21.8h-6.9V14.5z"/>
	<path d="M95.5,14.5h7.6l9.8,27.6l9.9-27.6h7.6l-14,38.9h-7.1L95.5,14.5z"/>
	<path d="M152.2,13.6c5.5,0,10.2,2,14.2,6c4,4,5.9,8.8,5.9,14.6c0,5.7-2,10.5-5.9,14.4c-3.9,3.9-8.7,5.9-14.2,5.9
		c-5.8,0-10.7-2-14.6-6.1c-3.9-4-5.8-8.8-5.8-14.4c0-3.7,0.9-7.1,2.7-10.3s4.3-5.6,7.4-7.4C145.2,14.5,148.6,13.6,152.2,13.6z
		 M152.2,20.8c-3.6,0-6.6,1.3-9.1,3.8s-3.7,5.7-3.7,9.5c0,4.3,1.5,7.7,4.6,10.2c2.4,2,5.2,2.9,8.3,2.9c3.5,0,6.5-1.3,9-3.8
		s3.7-5.7,3.7-9.4c0-3.7-1.2-6.8-3.7-9.4C158.7,22.1,155.7,20.8,152.2,20.8z"/>
	<path d="M26.7,36.2c2.5-0.9,4.3-2.2,5.5-3.9c1.2-1.7,1.8-3.9,1.8-6.4c0-2.4-0.6-4.5-1.7-6.3c-1.1-1.8-2.6-3.1-4.4-3.8
		s-4.9-1.2-9.2-1.2H11v38.9h7.4V37h0v-7.2h0v-8h2c2,0,3.3,0.1,4.1,0.4c0.7,0.3,1.3,0.7,1.8,1.4c0.4,0.6,0.7,1.4,0.7,2.2
		c0,1.4-0.4,2.5-1.3,3.1s-2.5,0.9-4.9,0.9h-1.6v2.6c0,3,0.7,6,2.2,8.7l6.6,12.4h8.1L26.7,36.2z"/>
	<g>
		<polygon points="90.2,14.5 82.7,14.5 67.7,53.5 75.4,53.5 81.3,38.2 81.3,38.2 86.5,24.9 91.7,38.2 91.6,38.2 94.4,45.4 
			94.4,45.4 97.4,53.5 105.1,53.5 		"/>
		<polygon points="80.3,53.5 92.5,53.5 86.4,47.4 		"/>
	</g>
	<g>
		<path d="M221.5,14.5l18.1,38.9h-4.2l-6.1-12.8h-16.8l-6.1,12.8h-4.3l18.4-38.9H221.5z M221.1,22.8l-6.7,14.1h13.3L221.1,22.8z"/>
		<path d="M241.7,46.2l3.3-2c2.3,4.3,5,6.4,8.1,6.4c1.3,0,2.5-0.3,3.7-0.9c1.1-0.6,2-1.4,2.6-2.4c0.6-1,0.9-2.1,0.9-3.3
			c0-1.3-0.4-2.6-1.3-3.8c-1.2-1.7-3.4-3.8-6.7-6.2c-3.2-2.5-5.3-4.2-6.1-5.3c-1.4-1.8-2.1-3.8-2.1-6c0-1.7,0.4-3.2,1.2-4.6
			c0.8-1.4,2-2.5,3.4-3.3c1.5-0.8,3.1-1.2,4.8-1.2c1.8,0,3.5,0.5,5.1,1.4c1.6,0.9,3.3,2.6,5.1,5l-3.2,2.4c-1.5-1.9-2.7-3.2-3.7-3.8
			c-1-0.6-2.2-0.9-3.4-0.9c-1.6,0-2.9,0.5-3.8,1.4c-1,1-1.5,2.1-1.5,3.5c0,0.8,0.2,1.7,0.5,2.5c0.4,0.8,1,1.7,1.9,2.6
			c0.5,0.5,2.2,1.8,5,3.9c3.4,2.5,5.7,4.7,6.9,6.6c1.3,1.9,1.9,3.9,1.9,5.8c0,2.8-1.1,5.3-3.2,7.4c-2.1,2.1-4.7,3.1-7.8,3.1
			c-2.4,0-4.5-0.6-6.4-1.9S243.3,49.2,241.7,46.2z"/>
		<path d="M268.6,14.5h3.9v16.3h19.8V14.5h3.9v38.9h-3.9V34.7h-19.8v18.8h-3.9V14.5z"/>
		<path d="M302.7,14.5h3.9v38.9h-3.9V14.5z"/>
		<path d="M329.9,13.6c5.9,0,10.8,2,14.8,5.9c4,3.9,6,8.8,6,14.5c0,5.7-2,10.5-5.9,14.5c-4,4-8.8,6-14.5,6c-5.8,0-10.6-2-14.6-5.9
			c-4-3.9-6-8.7-6-14.3c0-3.7,0.9-7.2,2.7-10.4c1.8-3.2,4.3-5.7,7.4-7.5C322.8,14.5,326.2,13.6,329.9,13.6z M330,17.4
			c-2.9,0-5.6,0.8-8.2,2.3c-2.6,1.5-4.6,3.5-6,6.1c-1.4,2.5-2.2,5.4-2.2,8.5c0,4.6,1.6,8.5,4.8,11.7c3.2,3.2,7.1,4.8,11.6,4.8
			c3,0,5.8-0.7,8.4-2.2c2.6-1.5,4.6-3.5,6-6c1.4-2.5,2.2-5.4,2.2-8.5c0-3.1-0.7-5.9-2.2-8.4c-1.4-2.5-3.5-4.5-6.1-6
			C335.7,18.1,333,17.4,330,17.4z"/>
		<path d="M353.8,53.5V14.5h0.8l25.9,29.8V14.5h3.8v38.9h-0.9L357.8,24v29.5H353.8z"/>
		<g>
			<polygon points="191.3,30.5 187.4,30.5 187.4,53.5 191.3,53.5 191.3,34.4 206.9,34.4 206.9,30.5 191.3,30.5 			"/>
			<polygon points="187.4,14.5 187.4,18.4 191.3,18.4 191.9,18.4 206.9,18.4 206.9,14.5 			"/>
		</g>
		<g>
			<path d="M419.8,13.6c5.9,0,10.8,2,14.8,5.9c4,3.9,6,8.8,6,14.5c0,5.7-2,10.5-5.9,14.5c-4,4-8.8,6-14.5,6c-5.8,0-10.6-2-14.6-5.9
				c-4-3.9-6-8.7-6-14.3c0-3.7,0.9-7.2,2.7-10.4c1.8-3.2,4.3-5.7,7.4-7.5C412.8,14.5,416.2,13.6,419.8,13.6z M420,17.4
				c-2.9,0-5.6,0.8-8.2,2.3c-2.6,1.5-4.6,3.5-6,6.1c-1.4,2.5-2.2,5.4-2.2,8.5c0,4.6,1.6,8.5,4.8,11.7c3.2,3.2,7.1,4.8,11.6,4.8
				c3,0,5.8-0.7,8.4-2.2c2.6-1.5,4.6-3.5,6-6c1.4-2.5,2.2-5.4,2.2-8.5c0-3.1-0.7-5.9-2.2-8.4c-1.4-2.5-3.5-4.5-6.1-6
				C425.7,18.1,422.9,17.4,420,17.4z"/>
			<path d="M443.9,14.5h3.9V38c0,2.8,0.1,4.5,0.2,5.2c0.2,1.5,0.6,2.8,1.3,3.8c0.7,1,1.8,1.9,3.3,2.6c1.5,0.7,2.9,1,4.4,1
				c1.3,0,2.5-0.3,3.7-0.8c1.2-0.5,2.2-1.3,3-2.3c0.8-1,1.4-2.1,1.7-3.5c0.3-1,0.4-3,0.4-6.1V14.5h3.9V38c0,3.5-0.3,6.3-1,8.4
				c-0.7,2.1-2,4-4.1,5.6s-4.5,2.4-7.4,2.4c-3.1,0-5.8-0.7-8.1-2.2c-2.2-1.5-3.7-3.5-4.5-6c-0.5-1.5-0.7-4.2-0.7-8.2V14.5z"/>
			<path d="M472.9,18.4v-3.8h21.3v3.8h-8.7v35.1h-4V18.4H472.9z"/>
			<path d="M498.4,14.5h3.9v35.2h15v3.8h-18.9V14.5z"/>
			<path d="M546.7,18.4v-3.8H568v3.8h-8.7v35.1h-4V18.4H546.7z"/>
			<rect x="520.8" y="14.5" width="22.3" height="3.8"/>
			<rect x="520.8" y="30.6" width="22.3" height="3.8"/>
			<rect x="520.8" y="49.6" width="22.3" height="3.8"/>
		</g>
	</g>
</g>
</svg>
