<svg xmlns="http://www.w3.org/2000/svg" viewBox="0 0 193.97 112.52"><defs><style>.cls-1{fill:#231f20;}</style></defs><title>Asset 4</title><g id="Layer_2" data-name="Layer 2"><g id="Layer_1-2" data-name="Layer 1"><polygon class="cls-1" points="8.45 59.98 8.45 81.95 11.62 81.95 11.62 59.98 20.7 59.98 20.7 58.6 0 58.6 0 59.98 8.45 59.98"/><path class="cls-1" d="M35.33,81.5c-4.86,0-8.8-5.07-8.8-11.32s3.94-11.29,8.8-11.29S44.12,64,44.12,70.18,40.18,81.5,35.33,81.5m0-23.31a12,12,0,1,0,0,24,12,12,0,1,0,0-24"/><path class="cls-1" d="M115.59,81.5c-4.86,0-8.79-5.07-8.79-11.32s3.93-11.29,8.79-11.29,8.79,5.06,8.79,11.29-3.94,11.32-8.79,11.32m0-23.31a12,12,0,1,0,12.35,12,12.18,12.18,0,0,0-12.35-12"/><polygon class="cls-1" points="52.34 81.95 54.17 58.6 56.98 58.6 64.46 76.64 71.76 58.6 74.44 58.6 76.21 81.95 72.84 81.95 71.72 63 63.83 81.95 63.31 81.95 55.44 63.1 54.17 81.95 52.34 81.95"/><path class="cls-1" d="M91.65,80.8H88.28a2.35,2.35,0,0,1-1.95-2.45V70.41H90s5.18.05,5.18,5.43c0,0,.3,4.12-3.53,5M86.4,59.47H90c4.33,0,4.29,4.83,4.29,4.83,0,5.21-5.31,4.87-5.31,4.87H86.4ZM98.83,76.13c0-5.32-5.58-6.62-5.58-6.62a5.53,5.53,0,0,0,4.29-5.09c0-6.1-7.16-5.82-7.16-5.82h-7V81.95H92.5c6.72,0,6.34-5.82,6.34-5.82"/><path class="cls-1" d="M134.2,81.95V58.6h3.08V79.84s.06.8,1.27.8h10v1.31Z"/><rect class="cls-1" x="153.66" y="58.6" width="3.14" height="23.35"/><rect class="cls-1" x="190.83" y="58.6" width="3.14" height="23.35"/><polygon class="cls-1" points="164.13 81.95 164.13 58.6 166.86 58.6 181.19 76.06 181.19 58.6 182.56 58.6 182.56 81.95 181.99 81.95 165.84 62.14 165.49 62.14 165.49 81.95 164.13 81.95"/><path class="cls-1" d="M69.74,112.52,69,107.39l-1.87,5.13h-.91l-1.89-5.13-.68,5.13h-1l1-6.83h1.16l2,5.3,1.91-5.3h1.12l1,6.83Z"/><path class="cls-1" d="M76.83,112.52l-.89-2.24H73.21l-.91,2.24H71.23l2.84-6.83h1.11L78,112.52Zm-2.27-5.74-1.05,2.7h2.14Z"/><path class="cls-1" d="M83.63,111.74a4.36,4.36,0,0,1-3,.78H78.85v-6.83h1.91a8,8,0,0,1,1.86.18A3.19,3.19,0,0,1,84.92,109,3.35,3.35,0,0,1,83.63,111.74Zm-.48-4.44a2.55,2.55,0,0,0-2.18-.76h-1v5.1h1c1.79,0,2.88-1,2.88-2.57A2.47,2.47,0,0,0,83.15,107.3Z"/><path class="cls-1" d="M86.2,112.52l0-6.83h4v.85H87.27v2H90v.82H87.27v2.26h3.11v.9Z"/><path class="cls-1" d="M94,112.52v-6.83h1.09v6.83Z"/><path class="cls-1" d="M101.15,112.52l-3.44-5v5h-1v-6.83h1.06l3.45,5.08v-5.08h1v6.83Z"/><path class="cls-1" d="M106.18,112.52v-6.83h1.1v6.83Z"/><path class="cls-1" d="M111.45,106.54v6h-1.1v-6h-2.18v-.85h5.46v.85Z"/><path class="cls-1" d="M119.39,112.52l-.89-2.24h-2.75l-.9,2.24H113.8l2.81-6.83h1.14l2.8,6.83Zm-2.29-5.74-1,2.7h2.12Z"/><path class="cls-1" d="M121.43,112.52v-6.83h1.07v5.94h3v.9Z"/><path class="cls-1" d="M129.16,109.5v3h-1.07v-3l-2.41-3.81h1.25l1.73,2.93,1.74-2.93h1.19Z"/><path class="cls-1" d="M113.39,19.44l-6.19-6.08,6.19-6.18a.24.24,0,0,0,.06-.2.27.27,0,0,0-.16-.17,3.7,3.7,0,0,0-1.15-.19h-.07a3,3,0,0,0-1.2.27,12.29,12.29,0,0,0-2.58,1.93c-.3.27-1.91,1.84-2.76,2.67a7.75,7.75,0,0,1,1.41-2.33.27.27,0,0,0,0-.21,8.62,8.62,0,0,0-5.87-5.81A3.92,3.92,0,0,0,99.42,0a.37.37,0,0,0-.27,0,.26.26,0,0,0-.05.24,2.56,2.56,0,0,1-.5,1.9.54.54,0,0,1-.39.14,1.27,1.27,0,0,1-.43-.09.22.22,0,0,0-.22,0,2.17,2.17,0,0,1-1.44.46,4.51,4.51,0,0,1-1.38-.23.23.23,0,0,0-.16,0A3.15,3.15,0,0,0,93,5.66a.19.19,0,0,0,.11.16.19.19,0,0,0,.2,0c1.1-.62,1.87-.08,3.13.89l.23.18a3.68,3.68,0,0,1-2,.83.81.81,0,0,1-.85-.54A.23.23,0,0,0,93.57,7a.23.23,0,0,0-.18.22,2,2,0,0,0,1.85,2.09h.09a5.49,5.49,0,0,0,1.94-.54,4,4,0,0,1,1.51-.46A1.34,1.34,0,0,1,100,9.74a3.05,3.05,0,0,1-1.69,2.1A2.13,2.13,0,0,0,97,13.54a.21.21,0,0,0,.13.2c.09.06.16,0,.24,0a1.86,1.86,0,0,1,1-.41.75.75,0,0,1,.57.25.72.72,0,0,1,.24.71c-.15.62-1.09,1.25-2.51,1.69-.4.12-.81.24-1.27.36a12.34,12.34,0,0,0-4.72,2,13.71,13.71,0,0,0-2.26,2.72c-.05.1-.14.19-.17.28a17,17,0,0,1-1.12,1.41,2.48,2.48,0,0,1-2.7.79,1.78,1.78,0,0,1-1.25-1.62,2,2,0,0,1,2-2,1.39,1.39,0,0,1,.88.35,1.49,1.49,0,0,1,.54.92.22.22,0,0,0,.21.18.2.2,0,0,0,.22-.18,3.05,3.05,0,0,0-1.83-3.73.25.25,0,0,0-.26,0,.21.21,0,0,0,0,.25,2,2,0,0,1,.1.67,4.79,4.79,0,0,0-.56,0h-.07a3.79,3.79,0,0,0-2.71,1.2,3.85,3.85,0,0,0-1.06,2.75A4.9,4.9,0,0,0,84.73,27a5.12,5.12,0,0,0,4.78-1.74,5.58,5.58,0,0,0,1.05-2.84A1.35,1.35,0,0,1,92,23.55c0,.65,0,1-1.66,2.42-1.44,1.25-1.48,2.27-1.25,2.89C89.6,30.23,91.7,31,92.93,31a1,1,0,0,0,.26,0,.51.51,0,0,0,.47-.27c.13-.32-.15-.64-.59-1.15S91.86,28.11,92,27.4a1.71,1.71,0,0,1,1-1.11c.27-.15.51-.24.74-.36a6.78,6.78,0,0,0,.62-.3,5.06,5.06,0,0,0,3,.92,10.85,10.85,0,0,0,2.37-.33,8.09,8.09,0,0,1,1.69-.26,2.92,2.92,0,0,1,2.19,1,.9.9,0,0,1,.28,1,3.1,3.1,0,0,1-2.51,1.15h-.07a.55.55,0,0,0-.53.29.49.49,0,0,0,.12.55,3.87,3.87,0,0,0,2.61,1h.12a2.07,2.07,0,0,0,1.81-.91c.66-1,.59-2.65-.24-4.67-1.52-3.74-3.65-4.74-3.74-4.78a.2.2,0,0,0-.11,0h-.45a7.37,7.37,0,0,1-2.52-.4h.27a9.62,9.62,0,0,0,8-3.87c.68.63,1,.92,1.49,1.34l.14.13a12.25,12.25,0,0,0,2.6,1.93,3.09,3.09,0,0,0,1.25.27,3.76,3.76,0,0,0,1.17-.21.22.22,0,0,0,.1-.36Z"/></g></g></svg>